<?xml version="1.0" encoding="utf-8"?>
<!-- Generator: Adobe Illustrator 23.0.2, SVG Export Plug-In . SVG Version: 6.00 Build 0)  -->
<svg version="1.1" id="Layer_1" xmlns="http://www.w3.org/2000/svg" xmlns:xlink="http://www.w3.org/1999/xlink" x="0px" y="0px"
	 viewBox="0 0 200 50" style="enable-background:new 0 0 200 50;" xml:space="preserve">
<style type="text/css">
	.st0{fill:#FFFFFF;}
	.st1{fill:#E23959;}
	.st2{fill:#CC3154;}
	.st3{fill:#4A8CD2;}
	.st4{fill:#4B7DC6;}
	.st5{fill:#FBC62C;}
	.st6{fill:#1B705A;}
	.st7{fill:#258B74;}
	.st8{fill:#63C1A0;}
	.st9{fill:#F1B218;}
</style>
<g>
	<path class="st0" d="M52.7,13.7h3.6v17.9h10.5v3.1H52.7V13.7z"/>
	<path class="st0" d="M69.3,12.8h3.3v3.8h-3.3V12.8L69.3,12.8z M69.3,19.3h3.3v15.4h-3.3V19.3L69.3,19.3z"/>
	<path class="st0" d="M81.2,29.3c0,2.5,0.9,3,4.3,2.7v2.8c-6.3,1-7.6-1.3-7.6-5.6v-7h-2.7v-2.9h2.7v-4.7l3.3-1v5.6h4.3v2.9h-4.3
		V29.3z"/>
	<path class="st0" d="M106,34.7V24.3c0-1.7-1-2.5-2.6-2.5s-2.7,0.8-2.7,2.6v10.3h-3.3V24.3c0-1.7-1-2.5-2.6-2.5
		c-1.6,0-2.7,0.8-2.7,2.6v10.3h-3.3V19.3h2.5l0.4,1.5c0.9-1.2,2.3-1.8,4-1.8c1.9,0,3.4,0.7,4.3,2.2c0.9-1.4,2.4-2.2,4.3-2.2
		c3.1,0,5.1,1.8,5.1,5.5v10.3L106,34.7L106,34.7z"/>
	<path class="st0" d="M126.1,34.7h-2.6l-0.4-1.6c-1,1.2-2.5,1.9-4.5,1.9c-3.4,0-5.6-1.9-5.6-5.9v-9.8h3.3v10.1
		c0,1.9,1.2,2.8,3.2,2.8s3.3-1,3.3-2.9v-10h3.3L126.1,34.7L126.1,34.7z"/>
	<path class="st0" d="M137,28.6l-3-0.6c-2.7-0.5-4.4-2-4.4-4.4c0-3.1,2.2-4.6,6.3-4.6c4,0,6.2,1.6,6.2,4.7V24h-3.3v-0.2
		c0-1.4-0.9-2.1-2.9-2.1c-1.9,0-2.9,0.6-2.9,1.8c0,0.9,0.5,1.4,1.9,1.7l3.1,0.6c2.7,0.5,4.4,2,4.4,4.4c0,3.2-2.4,4.8-6.4,4.8
		s-6.4-1.6-6.4-4.7v-0.3h3.3v0.2c0,1.4,1.1,2.1,3.1,2.1c1.9,0,3.1-0.6,3.1-1.9C139,29.5,138.4,28.9,137,28.6z"/>
	<path class="st0" d="M145.6,13.7h9.3c3.7,0,6,1.9,6,5.6c0,2.3-0.9,3.9-2.5,4.8c1.8,0.8,2.9,2.5,2.9,5c0,3.7-2.3,5.6-6,5.6h-9.7
		L145.6,13.7L145.6,13.7z M149.1,22.6h5.1c2,0,2.9-1,2.9-2.9c0-1.9-0.9-2.9-2.9-2.9h-5.1V22.6z M149.1,31.6h5.5c2,0,2.9-1,2.9-2.9
		c0-1.9-0.9-3-2.9-3h-5.5V31.6L149.1,31.6z"/>
	<path class="st0" d="M164.4,12.5h3.3v22.2h-3.3V12.5z"/>
	<path class="st0" d="M184.3,29c0,4-2.6,6-6.6,6c-4,0-6.6-2-6.6-6v-4.1c0-4,2.6-6,6.6-6c4,0,6.5,2,6.5,6L184.3,29L184.3,29z
		 M181,24.7c0-1.9-1.3-2.9-3.2-2.9c-1.9,0-3.2,0.9-3.2,2.9v4.5c0,1.9,1.3,2.9,3.2,2.9c2,0,3.2-0.9,3.2-2.9V24.7z"/>
	<path class="st0" d="M192.5,29.5l-3.5,5.2h-3.8l5.4-7.6l-5.4-7.8h4l3.4,5.2l3.5-5.2h3.7l-5.4,7.6l5.4,7.8h-4L192.5,29.5z"/>
</g>
<g>
	<g>
		<polygon class="st1" points="11.7,1.2 -0.1,8 11.7,14.9 23.5,8 		"/>
		<polygon class="st2" points="11.7,14.9 -0.1,8 -0.1,21.7 -0.1,21.7 11.7,28.5 		"/>
	</g>
	<polygon class="st3" points="35.2,1.2 47,8 35.2,14.9 23.5,8 	"/>
	<polygon class="st4" points="35.2,14.9 47,8 47,21.7 47,21.7 35.2,28.5 	"/>
	<polygon class="st5" points="23.5,35.3 23.4,49 11.6,42.2 11.6,42.2 11.7,28.5 	"/>
	<polygon class="st6" points="23.5,21.7 11.7,28.5 23.5,35.3 35.2,28.5 	"/>
	<polygon class="st7" points="11.7,14.9 23.5,8 23.5,21.7 23.5,21.7 11.7,28.5 	"/>
	<polygon class="st8" points="35.2,14.9 23.5,8 23.5,21.7 23.5,21.7 35.2,28.5 	"/>
	<polygon class="st9" points="23.5,35.3 23.4,49 35.2,42.1 35.2,28.5 	"/>
</g>
</svg>
